<?xml version="1.0" encoding="UTF-8" standalone="no"?>
<!DOCTYPE svg PUBLIC "-//W3C//DTD SVG 1.1//EN"
 "http://www.w3.org/Graphics/SVG/1.1/DTD/svg11.dtd">
<!-- Generated by graphviz version 2.40.1 (20161225.0304)
 -->
<!-- Title: %3 Pages: 1 -->
<svg width="249pt" height="335pt"
 viewBox="0.00 0.00 249.00 335.00" xmlns="http://www.w3.org/2000/svg" xmlns:xlink="http://www.w3.org/1999/xlink">
<g id="graph0" class="graph" transform="scale(1 1) rotate(0) translate(4 331)">
<title>%3</title>
<polygon fill="#ffffff" stroke="transparent" points="-4,4 -4,-331 245,-331 245,4 -4,4"/>
<!-- 547628063264 -->
<g id="node1" class="node">
<title>547628063264</title>
<polygon fill="none" stroke="#000000" points="55.5,-.5 55.5,-36.5 135.5,-36.5 135.5,-.5 55.5,-.5"/>
<text text-anchor="middle" x="95.5" y="-14.8" font-family="Times,serif" font-size="14.00" fill="#000000">data 4.0000</text>
</g>
<!-- 547628063264+ -->
<g id="node2" class="node">
<title>547628063264+</title>
<ellipse fill="none" stroke="#000000" cx="95.5" cy="-91" rx="27" ry="18"/>
<text text-anchor="middle" x="95.5" y="-87.3" font-family="Times,serif" font-size="14.00" fill="#000000">+</text>
</g>
<!-- 547628063264+&#45;&gt;547628063264 -->
<g id="edge1" class="edge">
<title>547628063264+&#45;&gt;547628063264</title>
<path fill="none" stroke="#000000" d="M95.5,-72.7052C95.5,-64.832 95.5,-55.4471 95.5,-46.7167"/>
<polygon fill="#000000" stroke="#000000" points="99.0001,-46.5378 95.5,-36.5378 92.0001,-46.5378 99.0001,-46.5378"/>
</g>
<!-- 547628062984 -->
<g id="node3" class="node">
<title>547628062984</title>
<polygon fill="none" stroke="#000000" points="57.5,-290.5 57.5,-326.5 137.5,-326.5 137.5,-290.5 57.5,-290.5"/>
<text text-anchor="middle" x="97.5" y="-304.8" font-family="Times,serif" font-size="14.00" fill="#000000">data 2.0000</text>
</g>
<!-- 547628063208* -->
<g id="node7" class="node">
<title>547628063208*</title>
<ellipse fill="none" stroke="#000000" cx="147.5" cy="-236" rx="27" ry="18"/>
<text text-anchor="middle" x="147.5" y="-232.3" font-family="Times,serif" font-size="14.00" fill="#000000">*</text>
</g>
<!-- 547628062984&#45;&gt;547628063208* -->
<g id="edge4" class="edge">
<title>547628062984&#45;&gt;547628063208*</title>
<path fill="none" stroke="#000000" d="M110.1171,-290.2052C116.2304,-281.341 123.6652,-270.5605 130.2894,-260.9553"/>
<polygon fill="#000000" stroke="#000000" points="133.2877,-262.7727 136.0838,-252.5534 127.5252,-258.7985 133.2877,-262.7727"/>
</g>
<!-- 547628063096 -->
<g id="node4" class="node">
<title>547628063096</title>
<polygon fill="none" stroke="#000000" points="156,-290.5 156,-326.5 241,-326.5 241,-290.5 156,-290.5"/>
<text text-anchor="middle" x="198.5" y="-304.8" font-family="Times,serif" font-size="14.00" fill="#000000">data &#45;3.0000</text>
</g>
<!-- 547628063096&#45;&gt;547628063208* -->
<g id="edge3" class="edge">
<title>547628063096&#45;&gt;547628063208*</title>
<path fill="none" stroke="#000000" d="M185.6305,-290.2052C179.395,-281.341 171.8115,-270.5605 165.0548,-260.9553"/>
<polygon fill="#000000" stroke="#000000" points="167.7607,-258.7188 159.1445,-252.5534 162.0354,-262.7463 167.7607,-258.7188"/>
</g>
<!-- 547628063152 -->
<g id="node5" class="node">
<title>547628063152</title>
<polygon fill="none" stroke="#000000" points="0,-145.5 0,-181.5 87,-181.5 87,-145.5 0,-145.5"/>
<text text-anchor="middle" x="43.5" y="-159.8" font-family="Times,serif" font-size="14.00" fill="#000000">data 10.0000</text>
</g>
<!-- 547628063152&#45;&gt;547628063264+ -->
<g id="edge5" class="edge">
<title>547628063152&#45;&gt;547628063264+</title>
<path fill="none" stroke="#000000" d="M56.6218,-145.2052C62.9796,-136.341 70.7118,-125.5605 77.601,-115.9553"/>
<polygon fill="#000000" stroke="#000000" points="80.643,-117.7193 83.6272,-107.5534 74.9548,-113.6395 80.643,-117.7193"/>
</g>
<!-- 547628063208 -->
<g id="node6" class="node">
<title>547628063208</title>
<polygon fill="none" stroke="#000000" points="105,-145.5 105,-181.5 190,-181.5 190,-145.5 105,-145.5"/>
<text text-anchor="middle" x="147.5" y="-159.8" font-family="Times,serif" font-size="14.00" fill="#000000">data &#45;6.0000</text>
</g>
<!-- 547628063208&#45;&gt;547628063264+ -->
<g id="edge6" class="edge">
<title>547628063208&#45;&gt;547628063264+</title>
<path fill="none" stroke="#000000" d="M134.3782,-145.2052C128.0204,-136.341 120.2882,-125.5605 113.399,-115.9553"/>
<polygon fill="#000000" stroke="#000000" points="116.0452,-113.6395 107.3728,-107.5534 110.357,-117.7193 116.0452,-113.6395"/>
</g>
<!-- 547628063208*&#45;&gt;547628063208 -->
<g id="edge2" class="edge">
<title>547628063208*&#45;&gt;547628063208</title>
<path fill="none" stroke="#000000" d="M147.5,-217.7052C147.5,-209.832 147.5,-200.4471 147.5,-191.7167"/>
<polygon fill="#000000" stroke="#000000" points="151.0001,-191.5378 147.5,-181.5378 144.0001,-191.5378 151.0001,-191.5378"/>
</g>
</g>
</svg>
